<!--?xml version="1.0" standalone="no"?-->
              <svg id="sw-js-blob-svg" viewBox="0 0 100 100" xmlns="http://www.w3.org/2000/svg" version="1.1">
                    <defs> 
                        <linearGradient id="sw-gradient" x1="0" x2="1" y1="1" y2="0">
                            <stop id="stop1" stop-color="rgba(67.07, 147.663, 201.14, 1)" offset="0%"></stop>
                            <stop id="stop2" stop-color="rgba(70, 121, 206, 1)" offset="100%"></stop>
                        </linearGradient>
                    </defs>
                <path fill="url(#sw-gradient)" d="M26.6,-34.8C34.3,-31,40.3,-23,42.4,-14.3C44.4,-5.7,42.4,3.7,39,12.1C35.5,20.5,30.6,27.9,23.8,29.3C17.1,30.8,8.5,26.3,1.5,24.2C-5.5,22,-10.9,22.3,-17.3,20.7C-23.6,19.2,-30.8,15.8,-35.7,9.5C-40.6,3.3,-43.2,-5.8,-40,-12.2C-36.8,-18.6,-27.9,-22.3,-20.2,-26.2C-12.6,-30.1,-6.3,-34.1,1.6,-36.3C9.4,-38.4,18.8,-38.7,26.6,-34.8Z" width="100%" height="100%" transform="translate(50 50)" stroke-width="0" style="transition: all 0.3s ease 0s;" stroke="url(#sw-gradient)"></path>
              </svg>